<svg width="64" height="64" viewBox="0 0 64 64" fill="none" xmlns="http://www.w3.org/2000/svg">
  <path d="M46 17C49 19 51 23 51 27" stroke="#F59E0B" stroke-width="3.5" stroke-linecap="round"/>
  <path d="M52 13C56 17 58 22 58 28" stroke="#F59E0B" stroke-width="3.5" stroke-linecap="round"/>
  <path
    d="M17 34V19.5C17 17.6 18.6 16 20.5 16C22.4 16 24 17.6 24 19.5V30H26V15.5C26 13.6 27.6 12 29.5 12C31.4 12 33 13.6 33 15.5V30H35V18.5C35 16.6 36.6 15 38.5 15C40.4 15 42 16.6 42 18.5V34.5L45.2 31.3C46.6 29.9 48.8 29.9 50.2 31.3C51.6 32.7 51.6 34.9 50.2 36.3L42.9 43.6C41.1 45.4 40 47.9 40 50.4V52C40 54.2 38.2 56 36 56H26C23.8 56 22 54.2 22 52V48.5C22 46.7 21.3 45 20 43.7L14.4 38.1C13 36.7 13 34.5 14.4 33.1C15.8 31.7 18 31.7 19.4 33.1L20 33.7V34H17Z"
    fill="#FCD34D" stroke="#F59E0B" stroke-width="2.5" stroke-linejoin="round"/>
</svg>
